
<svg version="1.1" id="Layer_1" xmlns="http://www.w3.org/2000/svg" xmlns:xlink="http://www.w3.org/1999/xlink" width="200" viewBox="0 0 106.73 37.01">
<g id="Group_53" transform="translate(205 6)">
	<g id="Group_50" transform="translate(-172.782 16.55)">
		<path id="Path_17" fill="#fff" d="M71.13-8.11c-0.8,0-1.45-0.65-1.45-1.46c0-0.8,0.65-1.45,1.46-1.45c0.8,0,1.45,0.65,1.45,1.45
			C72.59-8.77,71.94-8.11,71.13-8.11C71.13-8.11,71.13-8.11,71.13-8.11z M71.13-10.85c-0.71,0-1.28,0.58-1.28,1.29
			s0.58,1.28,1.29,1.28c0.71,0,1.28-0.58,1.28-1.29c0-0.71-0.57-1.28-1.28-1.29C71.14-10.85,71.13-10.85,71.13-10.85z M70.91-9.04
			c0,0.1,0.11,0.12,0.2,0.12v0.07h-0.67v-0.07c0.1,0,0.21-0.03,0.21-0.11v-1.21c0-0.12-0.02-0.13-0.19-0.13v-0.08h0.7
			c0.11-0.01,0.22,0.01,0.33,0.04c0.09,0.03,0.17,0.09,0.22,0.17c0.08,0.16,0.05,0.36-0.08,0.49c-0.08,0.07-0.19,0.11-0.3,0.12
			l0.51,0.65c0.04,0.05,0.09,0.07,0.15,0.06v0.07h-0.4l-0.56-0.75h-0.11L70.91-9.04L70.91-9.04z M70.91-9.68
			c0.1,0,0.2-0.01,0.3-0.03c0.16-0.03,0.28-0.18,0.25-0.34c0,0,0,0,0-0.01c0-0.14-0.1-0.26-0.24-0.27h-0.22
			c-0.04,0-0.08,0.02-0.08,0.09L70.91-9.68L70.91-9.68z"/>
		<path id="Path_18" fill="white" d="M-26.75,4.66c-5.05-6.47-3.9-15.81,2.57-20.87c5.88-4.59,14.25-4.11,19.57,1.12l-2.27,2.27
			C-20.91-23.72-33.3-8.38-28.41,1.68c-3.94-13.45,11.52-20.89,19.63-12.54l-2.23,2.18c-9.79-8.3-20.78,2.41-16.93,10.96
			c-2.18-12.07,10.71-14.2,15.1-9.15c-0.8,0.93-2.18,2.32-2.18,2.32C-21.71-10.46-30.71-3.52-26.75,4.66L-26.75,4.66z"/>
		<path id="Path_19" fill="white" d="M-3.3-13.78C1.76-7.31,0.61,2.04-5.86,7.09c-5.88,4.59-14.25,4.11-19.57-1.12l2.27-2.27
			C-9.13,14.6,3.26-0.73-1.63-10.79C2.3,2.65-13.15,10.1-21.26,1.75l2.23-2.18c9.79,8.3,20.78-2.41,16.93-10.96
			c2.18,12.07-10.71,14.2-15.1,9.14c0.8-0.93,2.18-2.32,2.18-2.32C-8.34,1.34,0.67-5.59-3.3-13.78L-3.3-13.78z"/>
		<path id="Path_20" fill="#fff" d="M10.28-6.65v-5.39h2.67V1.43h-2.67v-6H7.22v6H4.54v-13.46h2.67v5.39L10.28-6.65z"/>
		<path id="Path_21" fill="#fff" d="M13.65-3.72c0-2.77,0.38-5.14,3.93-5.14s3.93,2.37,3.93,5.14c0,3.18-0.46,5.41-3.93,5.41
			S13.65-0.54,13.65-3.72z M18.83-3.88c0-2.11-0.1-3.17-1.24-3.17s-1.24,1.07-1.24,3.17c0,3.1,0.25,3.76,1.24,3.76
			S18.83-0.78,18.83-3.88z"/>
		<path id="Path_22" fill="#fff" d="M22.19-10.35l2.7-1.27v2.88h1.4v1.75h-1.4v5.44c0,0.77-0.02,1.27,0.86,1.27c0.16,0.01,0.32-0.01,0.48-0.04
			v1.75c-0.46,0.06-0.93,0.1-1.4,0.1c-2.33,0-2.64-1.63-2.64-2.26L22.19-10.35L22.19-10.35z"/>
		<path id="Path_23" fill="#fff" d="M30.27,1.69c-1.98,0.15-3.71-1.33-3.87-3.31c-0.03-0.36,0-0.72,0.08-1.07h2.53c0,1.29,0.19,2.37,1.66,2.37
			c0.92,0.06,1.72-0.61,1.81-1.53c0-3.37-5.9-1.59-5.9-6.57c0-2.11,1.01-3.79,4.27-3.79c2.6,0,4,0.94,3.99,3.79h-2.6
			c0-1.01-0.43-1.93-1.51-1.93c-0.82-0.01-1.48,0.65-1.49,1.47c0,0.04,0,0.08,0,0.12c0,3.15,6,1.26,6,6.56
			C35.25,1.28,32.31,1.69,30.27,1.69L30.27,1.69z"/>
		<path id="Path_24" fill="#fff" d="M38.35,4.14h-2.47V-8.81h2.37v1.04h0.04c0.37-0.82,1.22-1.31,2.11-1.23c2.88,0,3.16,3.02,3.16,4.96
			c0,1.9-0.11,5.66-3.1,5.66c-0.86,0.12-1.7-0.32-2.1-1.1L38.35,4.14L38.35,4.14z M40.99-3.75c0-1.88-0.3-3.19-1.38-3.19
			c-1.03,0-1.33,1.3-1.33,3.19c0,2.37,0.48,3.36,1.33,3.36C40.51-0.4,40.99-1.38,40.99-3.75z"/>
		<path id="Path_25" fill="#fff" d="M46.55-8.7v1.31h0.04c0.45-1.07,1.57-1.69,2.72-1.51v2.37c-2.37-0.16-2.62,0.71-2.62,2.46v5.54h-2.7V-8.7
			H46.55z"/>
		<path id="Path_26" fill="#fff" d="M52.49,1.47h-2.5V-8.74h2.5V1.47z M52.49-11.7v2.18h-2.5v-2.18H52.49z"/>
		<path id="Path_27" fill="#fff" d="M55.9-7.63h0.04c0.52-0.93,1.53-1.48,2.59-1.4c1.31-0.02,2.39,1.02,2.41,2.33c0,0.02,0,0.04,0,0.06v8.15
			h-2.53v-7.01C58.41-6.4,58.1-7,57.24-7S55.9-6.4,55.9-5.49v7.01h-2.58V-8.65h2.58V-7.63z"/>
		<path id="Path_28" fill="#fff" d="M66.8,0.09c-0.59,0.63-1.41,1.01-2.28,1.03c-2.92,0-3.01-3.21-3.01-5.34c0-2.07,0.34-4.81,3.19-4.81
			c0.92,0,1.76,0.55,2.11,1.4h0.03v-1.1h2.37v9.81c0,0.65-0.49,3.23-3.93,3.23c-1.41,0-3.45-0.38-3.51-2.67h2.44
			c0.01,0.57,0.48,1.02,1.04,1.01c0.77,0.03,1.42-0.58,1.45-1.35c0-0.01,0-0.02,0-0.03L66.8,0.09L66.8,0.09z M65.49-0.8
			c0.9,0,1.28-0.92,1.28-2.91c0-2.07-0.38-3.29-1.3-3.29c-0.94,0-1.28,0.73-1.28,3.6C64.19-2.53,64.29-0.8,65.49-0.8L65.49-0.8z"/>
	</g>
</g>
</svg>
